HIERARCHY
ROOT Torso
{
    OFFSET 0 0 0
    CHANNELS 6 Xposition Yposition Zposition Xrotation Yrotation Zrotation
    JOINT LHip 
    {   
        OFFSET 0 0 0
        CHANNELS 3 Xrotation Yrotation Zrotation
        JOINT LThigh
        {
            OFFSET 0.055 -0.055 -0.01
            CHANNELS 3 Xrotation Yrotation Zrotation
            JOINT LLeg
            {
                OFFSET 0 -0.160 0.015
                CHANNELS 3 Xrotation Yrotation Zrotation
                JOINT LFoot
                {
                    OFFSET 0 -0.16 -0.01
                    CHANNELS 3 Xrotation Yrotation Zrotation
                    JOINT LToes
                    {
                        OFFSET 0 0 0.09
                        CHANNELS 3 Xrotation Yrotation Zrotation
                        End Site
                        {
                            OFFSET 0 0 0
                        }
                    }
                }
            }
        }
    }
    JOINT RHip 
    {   
        OFFSET 0 0 0
        CHANNELS 3 Xrotation Yrotation Zrotation
        JOINT RThigh
        {
            OFFSET -0.055 -0.055 -0.01
            CHANNELS 3 Xrotation Yrotation Zrotation
            JOINT RLeg
            {
                OFFSET 0 -0.160 0.015
                CHANNELS 3 Xrotation Yrotation Zrotation
                JOINT RFoot
                {
                    OFFSET 0 -0.16 -0.01
                    CHANNELS 3 Xrotation Yrotation Zrotation
                    JOINT RToes
                    {
                        OFFSET 0 0 0.09
                        CHANNELS 3 Xrotation Yrotation Zrotation
                        End Site
                        {
                            OFFSET 0 0 0
                        }
                    }
                }
            }
        }
    }
    JOINT Neck
    {
        OFFSET 0 0.135 0
        CHANNELS 3 Xrotation Yrotation Zrotation
        JOINT Head
        {
            OFFSET 0 0.075 0
            CHANNELS 3 Xrotation Yrotation Zrotation
            End Site 
            {
                OFFSET 0 0 0
            }
        }
    }
    JOINT LUpperarm
    {
        OFFSET 0.098 0.15 0
        CHANNELS 3 Xrotation Yrotation Zrotation
        JOINT LLowerarm
        {
            OFFSET 0 0.009 0.09
            CHANNELS 3 Xrotation Yrotation Zrotation
            JOINT LHand
            {
                OFFSET 0 0 0.105
                CHANNELS 3 Xrotation Yrotation Zrotation
                End Site
                {
                    OFFSET 0 0 0
                }
            }
        }
    }
    JOINT RUpperarm
    {
        OFFSET -0.098 0.15 0
        CHANNELS 3 Xrotation Yrotation Zrotation
        JOINT RLowerarm
        {
            OFFSET 0 0.009 0.09
            CHANNELS 3 Xrotation Yrotation Zrotation
            JOINT RHand
            {
                OFFSET 0 0 0.105
                CHANNELS 3 Xrotation Yrotation Zrotation
                End Site
                {
                    OFFSET 0 0 0
                }
            }
        }
    }
}
MOTION
Frames: 24
Frame Time: 0.04
0 0 0 0 0 0 0 0 0 18.075588 0 -0.253434 22.781073 0 0 -14.282764 0 -0.689989 0 0 0 0 0 0 13.52063 0 6.143433 22.099353 0 0 -18.491633 0 -0.692746 0 0 0 0 4.330834 0 5.338499 0 0 -154.238886 84.599906 0 0 -8.394396 17.023202 0 0 0 -135.739884 -86.628505 0 0 21.622271 -19.588306 0 0 0
0 0 0 0 0 0 0 0 0 18.141262 0 -0.272463 22.886439 0 0 -14.259124 0 -0.702263 0 0 0 0 0 0 13.7403 0 6.131657 21.968733 0 0 -18.686557 0 -0.77548 0 0 0 0 3.954648 0 5.517291 0 0 -153.327227 86.128347 0 0 -7.443701 17.215376 0 0 0 -145.84967 -87.079934 0 0 21.225111 -19.620867 0 0 0
0 0 0 0 0 0 0 0 0 18.129682 0 -0.362931 22.945999 0 0 -14.248055 0 -0.714447 0 0 0 0 0 0 13.910714 0 6.083024 21.903167 0 0 -18.846847 0 -0.852363 0 0 0 0 3.679328 0 5.721073 0 0 -150.36186 86.076269 0 0 -7.644393 17.1848 0 0 0 -135.718589 -87.449744 0 0 21.335591 -19.617206 0 0 0
0 0 0 0 0 0 0 0 0 18.103431 0 -0.498828 22.956011 0 0 -14.292676 0 -0.703495 0 0 0 0 0 0 14.04578 0 6.016607 21.901378 0 0 -18.955176 0 -0.910729 0 0 0 0 3.504429 0 5.934482 0 0 -144.060094 85.066839 0 0 -8.550514 16.99633 0 0 0 -105.542608 -87.136797 0 0 21.823917 -19.546548 0 0 0
0 0 0 0 0 0 0 0 0 18.12809 0 -0.667114 22.931964 0 0 -14.394214 0 -0.666024 0 0 0 0 0 0 14.186542 0 5.930471 21.94769 0 0 -19.048775 0 -0.968106 0 0 0 0 3.400451 0 6.130535 0 0 -133.573556 83.961248 0 0 -9.54959 16.775717 0 0 0 -81.957597 -85.386691 0 0 22.460813 -19.421395 0 0 0
0 0 0 0 0 0 0 0 0 18.233036 0 -0.864912 22.892429 0 0 -14.551199 0 -0.600008 0 0 0 0 0 0 14.355006 0 5.814088 22.01668 0 0 -19.134475 0 -1.024296 0 0 0 0 3.33943 0 6.293781 0 0 -118.843671 82.777116 0 0 -10.267558 16.588286 0 0 0 -70.868473 -82.47211 0 0 23.026526 -19.27871 0 0 0
0 0 0 0 0 0 0 0 0 18.400971 0 -1.078453 22.847099 0 0 -14.727097 0 -0.519846 0 0 0 0 0 0 14.559645 0 5.675952 22.09188 0 0 -19.225861 0 -1.083112 0 0 0 0 3.317427 0 6.417166 0 0 -103.515291 81.002694 0 0 -10.687234 16.452549 0 0 0 -64.669689 -78.698117 0 0 23.415974 -19.179139 0 0 0
0 0 0 0 0 0 0 0 0 18.580092 0 -1.286265 22.802709 0 0 -14.87253 0 -0.451021 0 0 0 0 0 0 14.792851 0 5.532482 22.156141 0 0 -19.33355 0 -1.148426 0 0 0 0 3.321841 0 6.510231 0 0 -91.43082 78.434003 0 0 -10.979497 16.353717 0 0 0 -61.105126 -74.330897 0 0 23.700404 -19.133488 0 0 0
0 0 0 0 0 0 0 0 0 18.708102 0 -1.459222 22.771293 0 0 -14.936257 0 -0.418455 0 0 0 0 0 0 15.02136 0 5.40947 22.190871 0 0 -19.464743 0 -1.222291 0 0 0 0 3.359007 0 6.581088 0 0 -82.827717 75.213006 0 0 -11.271919 16.280165 0 0 0 -59.720093 -69.767802 0 0 24.083846 -19.12263 0 0 0
0 0 0 0 0 0 0 0 0 18.766223 0 -1.583235 22.765652 0 0 -14.905273 0 -0.42639 0 0 0 0 0 0 15.22329 0 5.325173 22.189076 0 0 -19.616712 0 -1.302086 0 0 0 0 3.426378 0 6.639893 0 0 -76.73801 71.566449 0 0 -11.69096 16.244881 0 0 0 -59.700842 -65.311736 0 0 24.727612 -19.174084 0 0 0
0 0 0 0 0 0 0 0 0 18.762215 0 -1.681318 22.786356 0 0 -14.777531 0 -0.47796 0 0 0 0 0 0 15.394312 0 5.262447 22.158151 0 0 -19.775358 0 -1.382232 0 0 0 0 3.513951 0 6.687922 0 0 -72.349304 67.699943 0 0 -12.318842 16.267089 0 0 0 -60.338436 -61.055385 0 0 25.681566 -19.293298 0 0 0
0 0 0 0 0 0 0 0 0 18.718744 0 -1.778507 22.81592 0 0 -14.572528 0 -0.568058 0 0 0 0 0 0 15.530681 0 5.199165 22.116742 0 0 -19.933057 0 -1.461241 0 0 0 0 3.62387 0 6.724456 0 0 -69.153363 63.776277 0 0 -13.217974 16.365842 0 0 0 -61.217454 -57.028025 0 0 26.935721 -19.475449 0 0 0
0 0 0 0 0 0 0 0 0 18.66979 0 -1.874691 22.828642 0 0 -14.348429 0 -0.66937 0 0 0 0 0 0 15.635278 0 5.13321 22.084271 0 0 -20.119282 0 -1.557285 0 0 0 0 3.742024 0 6.747343 0 0 -66.889339 59.929014 0 0 -14.436777 16.534161 0 0 0 -62.061431 -53.243141 0 0 28.476774 -19.711039 0 0 0
0 0 0 0 0 0 0 0 0 18.6369 0 -1.983655 22.80923 0 0 -14.151353 0 -0.760775 0 0 0 0 0 0 15.720568 0 5.044458 22.069909 0 0 -20.357234 0 -1.685309 0 0 0 0 3.846908 0 6.769652 0 0 -65.341376 56.269058 0 0 -16.024723 16.751799 0 0 0 -62.740769 -49.707563 0 0 30.310277 -19.969042 0 0 0
0 0 0 0 0 0 0 0 0 18.624215 0 -2.110902 22.757233 0 0 -13.995818 0 -0.836826 0 0 0 0 0 0 15.797622 0 4.923511 22.071437 0 0 -20.632604 0 -1.837356 0 0 0 0 3.902902 0 6.804952 0 0 -64.302456 52.860164 0 0 -17.97358 16.975341 0 0 0 -63.212251 -46.437832 0 0 32.444576 -20.19421 0 0 0
0 0 0 0 0 0 0 0 0 18.625429 0 -2.229971 22.682652 0 0 -13.869313 0 -0.904166 0 0 0 0 0 0 15.870531 0 4.796056 22.078284 0 0 -20.923273 0 -1.998972 0 0 0 0 3.889897 0 6.853544 0 0 -63.609722 49.725308 0 0 -20.248673 17.144391 0 0 0 -63.468613 -43.466134 0 0 34.887202 -20.313507 0 0 0
0 0 0 0 0 0 0 0 0 18.62769 0 -2.315062 22.600727 0 0 -13.746785 0 -0.973995 0 0 0 0 0 0 15.940748 0 4.688835 22.077512 0 0 -21.206886 0 -2.155656 0 0 0 0 3.79568 0 6.910585 0 0 -63.111907 46.865155 0 0 -22.789979 17.201399 0 0 0 -63.52394 -40.829204 0 0 37.612445 -20.217428 0 0 0
0 0 0 0 0 0 0 0 0 18.62598 0 -2.353444 22.524018 0 0 -13.62186 0 -1.04644 0 0 0 0 0 0 16.009835 0 4.620811 22.061006 0 0 -21.469073 0 -2.298694 0 0 0 0 3.619036 0 6.973859 0 0 -62.655915 44.280374 0 0 -25.496266 17.076832 0 0 0 -63.409028 -38.553829 0 0 40.566585 -19.776057 0 0 0
0 0 0 0 0 0 0 0 0 18.617553 0 -2.357237 22.458997 0 0 -13.499224 0 -1.116364 0 0 0 0 0 0 16.077661 0 4.583497 22.028168 0 0 -21.702437 0 -2.424549 0 0 0 0 3.382008 0 7.036151 0 0 -62.137474 41.973049 0 0 -28.251407 16.711184 0 0 0 -63.149731 -36.65276 0 0 43.672473 -18.816121 0 0 0
0 0 0 0 0 0 0 0 0 18.596275 0 -2.353458 22.404247 0 0 -13.382208 0 -1.181535 0 0 0 0 0 0 16.138993 0 4.550103 21.985244 0 0 -21.906928 0 -2.534158 0 0 0 0 3.113988 0 7.083727 0 0 -61.50009 39.960577 0 0 -30.918005 16.068226 0 0 0 -62.75051 -35.104411 0 0 46.76745 -17.160167 0 0 0
0 0 0 0 0 0 0 0 0 18.565309 0 -2.342891 22.353712 0 0 -13.286991 0 -1.23363 0 0 0 0 0 0 16.182919 0 4.52036 21.940339 0 0 -22.089195 0 -2.631292 0 0 0 0 2.840046 0 7.105639 0 0 -60.739031 38.239276 0 0 -33.389024 15.137753 0 0 0 -62.187976 -33.880521 0 0 49.61656 -14.727275 0 0 0
0 0 0 0 0 0 0 0 0 18.529025 0 -2.319241 22.305279 0 0 -13.23396 0 -1.261008 0 0 0 0 0 0 16.201798 0 4.502239 21.898377 0 0 -22.247844 0 -2.715226 0 0 0 0 2.586869 0 7.113152 0 0 -59.886245 36.788676 0 0 -35.54958 13.960586 0 0 0 -61.443642 -32.929991 0 0 51.927035 -11.685046 0 0 0
0 0 0 0 0 0 0 0 0 18.479364 0 -2.296272 22.262292 0 0 -13.21248 0 -1.270993 0 0 0 0 0 0 16.191658 0 4.486767 21.863213 0 0 -22.3538 0 -2.771174 0 0 0 0 2.364335 0 7.124539 0 0 -58.981901 35.604485 0 0 -37.325823 12.628433 0 0 0 -60.544244 -32.164546 0 0 53.46741 -8.505816 0 0 0
0 0 0 0 0 0 0 0 0 18.40671 0 -2.281656 22.22703 0 0 -13.188801 0 -1.284452 0 0 0 0 0 0 16.142377 0 4.472934 21.840062 0 0 -22.359019 0 -2.773668 0 0 0 0 2.171918 0 7.146705 0 0 -58.066112 34.671132 0 0 -38.633866 11.29357 0 0 0 -59.575381 -31.497934 0 0 54.127928 -5.862799 0 0 0
